<svg width="23" height="25" viewBox="0 0 23 25" fill="none" xmlns="http://www.w3.org/2000/svg">
<path d="M2.21154 13.2667H1L1.80769 11.2222M2.21154 13.2667L2.61538 18.8889L4.23077 24H11.0962H11.9038H18.7692L20.3846 18.8889L20.5865 16.0778L20.7885 13.2667M2.21154 13.2667L2.00962 12.2444M1.80769 11.2222H11.0962V12.2444H2.00962M1.80769 11.2222L2.00962 12.2444M1.80769 11.2222L4.23077 9.17778V5.08889L5.03846 2.02222H7.86538M7.86538 2.02222L8.26923 1H11.0962V2.53333L10.6923 2.02222H8.67308H7.86538ZM20.7885 13.2667H22L21.1923 11.2222M20.7885 13.2667L20.9904 12.2444M21.1923 11.2222H11.9038V12.2444H20.9904M21.1923 11.2222L20.9904 12.2444M21.1923 11.2222L18.7692 9.17778V5.08889L17.9615 2.02222H15.1346M15.1346 2.02222L14.7308 1H11.9038V2.53333L12.3077 2.02222H14.3269H15.1346ZM9.07692 14.2889H9.88462V21.4444H9.07692V14.2889ZM5.03846 14.2889H5.84615V21.4444H5.03846V14.2889ZM13.9231 14.2889H13.1154V21.4444H13.9231V14.2889ZM17.9615 14.2889H17.1538V21.4444H17.9615V14.2889Z" stroke="black"/>
</svg>
